<svg width="157" height="55" viewBox="0 0 157 55" fill="none" xmlns="http://www.w3.org/2000/svg">
<path d="M0 10C0 4.47715 4.47715 0 10 0H147C152.523 0 157 4.47715 157 10V45C157 50.5228 152.523 55 147 55H10C4.47715 55 0 50.5228 0 45V10Z" fill="url(#paint0_radial_6312_136)" fill-opacity="0.8"/>
<path d="M0 10C0 4.47715 4.47715 0 10 0H147C152.523 0 157 4.47715 157 10V45C157 50.5228 152.523 55 147 55H10C4.47715 55 0 50.5228 0 45V10Z" fill="url(#paint1_linear_6312_136)"/>
<defs>
<radialGradient id="paint0_radial_6312_136" cx="0" cy="0" r="1" gradientUnits="userSpaceOnUse" gradientTransform="rotate(19.3063) scale(166.355 82.3929)">
<stop stop-color="#A934F1"/>
<stop offset="1" stop-color="#9467DD"/>
</radialGradient>
<linearGradient id="paint1_linear_6312_136" x1="0" y1="0" x2="78.7205" y2="46.5358" gradientUnits="userSpaceOnUse">
<stop stop-color="white" stop-opacity="0.2"/>
<stop offset="0.383569" stop-color="white" stop-opacity="0.2"/>
<stop offset="0.383669" stop-color="white" stop-opacity="0.28"/>
<stop offset="0.805208" stop-color="white" stop-opacity="0"/>
</linearGradient>
</defs>
</svg>
